<?xml version="1.0" encoding="UTF-8"?>
<svg id="Layer_2" data-name="Layer 2" xmlns="http://www.w3.org/2000/svg" viewBox="0 0 158.15 137.44">
  <defs>
    <style>
      .cls-1 {
        fill: green;
      }
    </style>
  </defs>
  <g id="V2">
    <path class="cls-1" d="m157.61,131.44l-47.03-81.08c-.22-.37-.49-.7-.81-.98-.09-.41-.23-.82-.45-1.19L82.54,1.99c-.72-1.23-2.03-1.99-3.46-1.99s-2.74.76-3.46,1.99l-40.24,69.38c-.22.39-.37.8-.45,1.22-.33.28-.61.62-.84,1L.54,131.44c-.72,1.24-.72,2.76,0,4,.71,1.24,2.04,2,3.47,2h16.21c.6,0,1.19-.13,1.73-.39,19.04-9.11,42.49-10.09,51.69-10.09,3.24,0,5.18.12,5.2.12.08,0,.16,0,.25,0s.16,0,.25,0c.02,0,1.96-.12,5.2-.12,7.17,0,21.37.57,35.84,4.38.34.09.68.13,1.02.13.05,0,.1-.01.15-.01.33.21.68.39,1.08.5,4.93,1.41,9.51,3.13,13.61,5.09.54.26,1.13.39,1.73.39h16.21c1.43,0,2.75-.76,3.47-2,.71-1.24.71-2.77,0-4ZM79.08,4l26.79,46.18c-1.57,2.02-3.12,4.04-4.65,6.02-15.06,19.57-29.3,38.07-41.39,37.51-.07,0-.13-.01-.2-.03-5.91-1.84-12.41-8.16-20.79-20.29L79.08,4Zm0,119.09s-32.94-2.04-58.86,10.36H4l33.54-57.83c8.33,11.89,14.98,18.21,21.2,20.23.1.03.2.09.27.17,8.24,8.57,15.72,12.58,23.49,12.58h18.06c6.76-.02,12.59,2.58,16.47,7.34,2.75,3.37,4.26,7.5,4.34,11.55-21.53-5.67-42.3-4.39-42.3-4.39Zm58.86,10.36c-4.6-2.2-9.42-3.94-14.24-5.32.08-4.79-1.63-9.7-4.86-13.66-4.33-5.32-10.8-8.21-18.28-8.2h-18.05c-6.33,0-12.54-3.01-19.32-9.39-.41-.38-.22-1.05.33-1.17,12.27-2.65,25.56-19.9,39.54-38.07,1.33-1.73,2.69-3.5,4.06-5.26l47.03,81.09h-16.21Z"/>
  </g>
</svg>