<?xml version="1.0" encoding="UTF-8"?>
<svg id="Cardboard" data-name="Cardboard" xmlns="http://www.w3.org/2000/svg" viewBox="0 0 166.68 132.11">
  <g id="V2">
    <path d="m75.56,58.15l15.4,8.89v46.14l-40.23-23.22v-46.15l13.56,7.83v10.32c0,.26.11.5.3.68s.45.25.7.23l2.14-.24,2.24,2.7c.18.21.44.33.7.33.11,0,.22-.02.33-.06l4.28-1.66c.34-.14.58-.47.58-.84v-4.94Zm30.41-30.69l-14.36-8.29-39.96,23.07,13.57,7.84,40.75-22.62Zm25.86,14.94l-14.58-8.42-40.75,22.61,15.37,8.88,36.9-21.3,3.06-1.77ZM166.68,4.06v123.98c0,2.24-1.82,4.06-4.06,4.06H43.48c-.52,0-1.04-.1-1.52-.28C-15.55,109.49-8.12,49.88,29.27,1.58c.77-1,1.97-1.58,3.23-1.58h130.11c2.24,0,4.06,1.82,4.06,4.06Zm-31.87,38.18c0-.32-.17-.62-.45-.78-.21-.12-.45-.15-.68-.09l-15.97-9.22-6.05-3.5-19.6-11.31c-.28-.16-.63-.16-.91,0l-41.78,24.12c-.28.16-.45.46-.45.78v48.24c0,.33.17.63.45.79l42.04,24.27c.14.08.29.12.45.12s.31-.04.45-.12l42.04-24.27c.28-.16.45-.46.45-.79v-48.24Zm-42.04,24.79v46.15l40.23-23.23v-46.14l-21.82,12.59-18.41,10.63Z" fill="green"/>
  </g>
</svg>