<?xml version="1.0" encoding="UTF-8"?>
<svg id="Layer_2" data-name="Layer 2" xmlns="http://www.w3.org/2000/svg" viewBox="0 0 249.19 215.13">
  <defs>
    <style>
      .cls-1 {
        fill: green;
      }
    </style>
  </defs>
  <g id="V2">
    <path class="cls-1" d="m164.77,74.52c-.1-.74-.2-1.46-.3-2.15-.14-1.02-.28-1.97-.41-2.82-.26-1.7-.47-3.01-.59-3.74-.01-.08-.05-.14-.1-.19-.06-.05-.13-.07-.21-.07h-42c-.15,0-.28.11-.31.26-.14.85-.4,2.49-.71,4.62-.36,2.44-.8,5.53-1.2,8.86-.1.84-.2,1.69-.3,2.55-.14,1.28-.28,2.59-.41,3.9-.12,1.31-.23,2.61-.33,3.9-.03.42-.06.85-.09,1.27-.21,3.38-.29,6.54-.14,9.08.65,10.65,9.08,19.31,21.47,22.06.88.19,1.49.95,1.49,1.84v30.85c0,.12-.02.24-.07.36-.05.11-.11.2-.2.29-.16.16-.39.27-.65.27h-9.13c-1.52.2-1.95,1.32-2.01,2.35h27.18c-.01-.26-.05-.52-.12-.78-.07-.25-.18-.49-.33-.71-.31-.43-.8-.76-1.56-.86h-9.13c-.12,0-.25-.03-.36-.08-.22-.09-.39-.26-.48-.48-.05-.12-.08-.24-.08-.36v-30.85c0-.34.09-.65.24-.93.16-.27.38-.5.65-.67.18-.11.38-.2.6-.24,2.33-.52,4.51-1.24,6.53-2.15.67-.3,1.33-.62,1.96-.96,7.63-4.1,12.5-10.97,12.98-18.95.4-6.35-.69-16.59-1.72-24.33-.05-.38-.11-.76-.16-1.14Zm-.11,25.34c-.53,8.58-6.64,15.75-15.93,19.09-2.11.76-4.34,1.1-6.57,1.1s-4.46-.34-6.56-1.1c-3.99-1.44-7.39-3.58-10.02-6.24-3.37-3.49-5.41-7.85-5.71-12.65-.56-9.06,2-26.34,2.94-32.31h38.95c.96,6.14,3.46,23.15,2.9,32.11Zm-60.95-34.06c.64,3.92,3.81,24.02,3.19,34.18-.66,10.66-9.09,19.32-21.48,22.06-.88.19-1.49.95-1.49,1.84v30.85c0,.51.41.92.92.92h9.13c1.52.19,1.95,1.32,2.02,2.35h-27.19c.07-1.02.5-2.15,2.02-2.35h9.13c.51,0,.92-.41.92-.92v-30.85c0-.89-.61-1.65-1.48-1.84-12.39-2.74-20.82-11.4-21.48-22.06-.63-10.16,2.54-30.26,3.19-34.18.02-.15.15-.26.3-.26h42.01c.15,0,.28.11.3.26Zm140.03-29.36c-6.97,2.58-14,4.11-21.09,4.07l-138.88-.28c-2.24,0-4.06-1.82-4.06-4.07V4.07c0-3.98-5.13-5.59-7.4-2.32L.72,105.03c-.95,1.37-.97,3.19-.04,4.58l69.34,103.71c2.19,3.27,7.29,1.83,7.44-2.1l1.31-33.23c.09-2.18,1.88-3.9,4.06-3.9l80.43-.11c.53,0,1.06-.1,1.56-.3,6.32-2.57,11.46-6.43,14.75-12.33l69.07-119.05c1.9-3.28-1.33-7.18-4.89-5.86Zm-134.84,63.66c-.71,11.55-9.72,20.91-22.96,23.87v29.68h8.05c.08,0,.17,0,.25.02,2.2.28,3.61,1.85,3.76,4.2.04.55-.16,1.09-.54,1.5s-.91.63-1.46.63h-27.19c-.55,0-1.08-.23-1.46-.63-.38-.4-.57-.95-.54-1.5.15-2.35,1.56-3.92,3.76-4.2.08-.01.17-.02.25-.02h8.05v-29.68c-13.24-2.96-22.25-12.33-22.96-23.87-.64-10.37,2.56-30.66,3.21-34.63.19-1.12,1.14-1.93,2.28-1.93h42.01c1.13,0,2.09.81,2.28,1.93.65,3.97,3.85,24.26,3.21,34.63Zm59.75,0c-.75,12.23-9.12,20.77-22.96,23.87v29.68h8.05c.08,0,.17.01.25.02,2.2.28,3.61,1.85,3.76,4.2.04.55-.16,1.09-.54,1.5-.37.4-.9.63-1.46.63h-27.18c-.56,0-1.09-.23-1.46-.63-.38-.41-.58-.95-.54-1.5.15-2.35,1.56-3.92,3.76-4.2.08-.01.17-.02.25-.02h8.05v-29.68c-13.24-2.96-22.25-12.32-22.96-23.87-.64-10.39,2.56-30.67,3.21-34.63.19-1.12,1.14-1.93,2.28-1.93h42c1.14,0,2.09.81,2.28,1.93.65,3.96,3.85,24.24,3.21,34.63Z"/>
  </g>
</svg>