<?xml version="1.0" encoding="UTF-8"?>
<svg id="Loose-paper" data-name="Loose-paper" xmlns="http://www.w3.org/2000/svg" viewBox="0 0 182.82 188.79">
  <g id="V2">
    <g>
      <polygon points="94.62 42.48 48.95 107.09 101.79 95.99 94.62 42.48" fill="green"/>
      <polygon points="49.2 110.15 91.26 139.89 86.24 102.37 49.2 110.15" fill="green"/>
      <polygon points="139.66 71.43 97.59 41.69 102.61 79.21 139.66 71.43" fill="green"/>
      <path d="m104.99,96.99c.11.79-.42,1.53-1.2,1.69l-14.57,3.06,5,37.36,45.68-64.62-36.89,7.75,1.98,14.75Z" fill="green"/>
      <path d="m182.58,73.95C162.21,16.36,116.11-22.15,66.2,14.11c-.42.3-.78.69-1.06,1.12L.65,115.41c-1.22,1.89-.67,4.4,1.22,5.62l104.24,67.11c1.89,1.22,4.4.67,5.62-1.22l70.43-109.4c.68-1.06.84-2.38.42-3.57Zm-37.74-1.33s-.02.07-.03.1c-.05.14-.11.26-.19.37l-50.14,70.93c-.07.11-.16.2-.27.29-.02.02-.07.06-.1.07-.11.07-.21.13-.32.17-.03.01-.06.02-.1.03-.1.03-.21.05-.32.06-.03,0-.15,0-.15,0-.11,0-.22-.01-.33-.04,0,0-.07-.02-.1-.03-.03,0-.05-.02-.08-.03-.09-.03-.16-.06-.23-.1,0,0,0,0-.01,0-.06-.03-.13-.08-.18-.12l-47.71-33.72s-.09-.07-.13-.11c-.08-.07-.15-.14-.21-.22,0,0-.02-.02-.02-.03-.03-.03-.05-.07-.07-.11-.06-.1-.11-.21-.14-.33-.06-.22-.07-.34-.07-.46,0-.15.02-.28.06-.41,0-.02.02-.08.03-.1.05-.13.11-.25.19-.36l50.15-70.94c.08-.11.17-.21.28-.3.02-.02.08-.06.1-.08.08-.06.2-.12.33-.17.02,0,.04-.01.06-.02.11-.03.22-.06.34-.07.03,0,.11,0,.13,0,.12,0,.24.01.35.04,0,0,.13.04.13.04.1.03.18.07.25.11.03.02.12.07.15.09l47.76,33.76s.05.04.08.06c.02.02.05.04.07.06.06.05.12.12.18.2.02.03.04.05.06.08.01.02.02.04.04.06.06.1.11.21.15.33.01.04.03.11.04.15.02.05.04.2.03.33,0,.12-.02.25-.06.39Z" fill="green"/>
    </g>
  </g>
</svg>