<?xml version="1.0" encoding="UTF-8"?>
<svg id="Layer_2" data-name="Layer 2" xmlns="http://www.w3.org/2000/svg" viewBox="0 0 238.95 190.98">
  <defs>
    <style>
      .cls-1 {
        fill: green;
      }
    </style>
  </defs>
  <g id="V2">
    <path class="cls-1" d="m90.4,58.13l2.05-1.35c.18.87-.22,1.69-.89,1.84-.43.09-.86-.11-1.16-.49Zm.5-2.68h-.02c-.09.02-.17.05-.26.1-.14.08-.26.18-.36.31h0c-.16.22-.26.5-.29.82.53-.33,1.11-.68,1.73-1.05-.2-.12-.41-.19-.62-.19-.06,0-.12,0-.18.02Zm-1.87,3.34c.26.54.6,1.04.99,1.46.35-.11.71-.24,1.07-.37-.74-.08-1.42-.54-1.87-1.22-.21-.32-.37-.69-.46-1.1,0-.04-.02-.07-.02-.1-.03-.18-.05-.36-.05-.54,0-.8.28-1.56.78-2.06h0c.24-.25.53-.44.87-.56.09-.03.18-.06.28-.08.6-.12,1.2,0,1.72.33.18.11.36.25.52.41.28.3.52.66.68,1.07.06.16.11.33.15.49.21,1.01-.07,2-.66,2.64,1.34-.52,2.79-1.15,4.34-1.87-.17-.47-.4-.87-.59-1.16-.31-.48-.71-.93-1.14-1.31-.04-.04-.08-.08-.13-.11-.33-.28-.68-.52-1.01-.69-.16-.08-.31-.15-.46-.21-.1-.04-.21-.07-.33-.09-.75-.17-1.78-.1-2.81.23-.69.22-1.36.55-1.94,1-.08.14-.15.27-.21.39-.02.05-.03.08-.05.13-.19.51-.24,1.05-.19,1.59.02.17.04.34.08.51.09.42.24.83.44,1.23Zm-.29,1.87c-.28-.36-.53-.75-.75-1.17-1.05.74-1.85,1.39-2.44,1.97.87-.16,1.94-.42,3.19-.8Zm9.77-3.92c1.34-.64,2.74-1.35,4.21-2.13,7.84-4.19,12.93-8.08,15.23-10.47-2.81.58-7.89,2.9-16.74,7.63-1.6.86-3.07,1.65-4.41,2.4.39.38.74.8,1.03,1.25.29.44.52.87.68,1.32Zm36.23,1.26c-.58.96-1.25,1.87-1.99,2.7-1.04,1.19-2.23,2.22-3.52,3.09-.25.17-.53-.19-.3-.39,1.12-1.01,2.1-2.16,2.91-3.39.78-1.21,1.42-2.51,1.91-3.86-3.08-5.62-4.9-6.52-8.12-8.12-.48-.24-1-.49-1.56-.79-.02.03-.03.06-.05.1-.02.05-.04.09-.06.14-.03.05-.06.11-.09.17-.02.04-.05.08-.07.11-.07.11-.14.23-.23.35-.06.08-.12.17-.19.25,0,0-.02.02-.02.03-.08.09-.15.18-.24.28-.08.09-.17.19-.27.3-.03.02-.05.05-.08.08-.12.13-.26.26-.41.4-.48.46-1.09.99-1.83,1.57-.23.17-.46.36-.71.55-.08.05-.14.11-.22.17-.14.11-.3.22-.46.33-.24.17-.5.36-.77.55-.05.04-.1.08-.15.11-.2.14-.41.29-.63.44-.07.05-.14.09-.21.14-.16.11-.33.22-.49.33-.12.08-.24.16-.36.24-.73.48-1.5.97-2.3,1.47-.14.08-.27.17-.4.25-.27.17-.55.34-.83.51-.28.17-.56.34-.85.51-.57.34-1.15.69-1.75,1.03-.3.17-.6.35-.9.52-1.21.7-2.47,1.39-3.74,2.06-.33.17-.66.36-.99.53-.66.34-1.31.68-1.98,1.02-.33.17-.66.34-.99.51-1.38.69-2.72,1.33-3.99,1.91-.14.07-.29.14-.43.2-.3.14-.58.27-.87.39-.28.13-.56.25-.84.37-.42.19-.83.36-1.23.52-.02,0-.02.02-.05.02-.59.25-1.16.48-1.72.7-.19.07-.37.14-.55.2-.13.05-.26.11-.39.15-.21.08-.42.15-.62.23-.14.05-.28.1-.42.14-.11.04-.22.08-.33.11-.05.02-.1.03-.14.05-.05.02-.12.04-.18.05-.22.08-.43.14-.64.2-.18.06-.36.11-.54.17-.09.03-.18.05-.27.08s-.17.05-.27.08c-.58.15-1.1.27-1.57.34-.06.02-.12.02-.18.03-.32.05-.61.08-.87.08-.07,0-.14,0-.2,0-.12,0-.23,0-.33-.02-.02,0-.02,0-.03,0-.15,0-.28-.03-.4-.05-.07.63-.14,1.21-.21,1.75-.45,3.48-.71,5.48,2.01,10.83.05,0,.09,0,.14,0,4.46.72,9.11-.1,13.44-1.44,4.44-1.39,8.72-3.35,12.88-5.54.14-.07.3-.02.37.11.07.13.02.28-.1.36-4.01,2.49-8.17,4.79-12.64,6.55-4.02,1.57-8.3,2.69-12.68,2.62l27.73,51.9c.38.71,1.49.99,3.15.87.04,0,.08-.02.12-.02.51-.03,1.06-.11,1.67-.21.35-.06.71-.14,1.08-.22.2-.05.39-.09.6-.14,2.76-.69,6.22-1.91,10.08-3.57.34-.15.68-.3,1.02-.45.38-.17.76-.34,1.14-.52.38-.17.77-.35,1.15-.54.39-.18.78-.36,1.18-.56.49-.24.99-.49,1.5-.73.22-.11.44-.23.66-.34.28-.14.56-.28.84-.43.15-.08.31-.16.46-.24.46-.24.92-.48,1.38-.73.46-.24.92-.49,1.37-.74.15-.08.3-.17.45-.25.28-.15.55-.31.83-.46.22-.12.43-.24.65-.36.49-.28.96-.56,1.44-.84.38-.21.75-.44,1.12-.66.37-.22.73-.44,1.09-.66.36-.22.71-.44,1.05-.66.32-.2.63-.39.93-.6,3.54-2.28,6.47-4.48,8.58-6.4.15-.14.3-.28.45-.42.28-.27.54-.52.79-.77.42-.44.79-.87,1.1-1.27.02-.03.05-.05.08-.08,1.02-1.32,1.41-2.39,1.03-3.1l-27.94-52.28Zm103.68,21.47l-59.98,109.39c-.81,1.46-2.42,2.28-4.08,2.07l-124.66-15.82c-3.96-.51-4.9-5.81-1.37-7.64l28.48-14.82c1.99-1.03,2.76-3.48,1.73-5.47L14.68,23.87C11.44,17.56,6.84,12.03,1.33,7.04-1.48,4.5.49-.17,4.27,0l137.49,6.3c6.75.2,12.55,2.97,17.75,7.39.4.35.73.77.98,1.25l37.23,71.29c1.01,1.93,3.36,2.73,5.34,1.8l30.08-14.18c3.56-1.68,7.19,2.18,5.29,5.63Zm-74.63,30.22l-28.32-52.99-.66-1.22h0c-3.26-5.9-5.42-6.98-8.63-8.58-.74-.36-1.52-.75-2.38-1.24l-1.7-3.17c-.03-.17-.08-.33-.17-.49-1.81-3.39-14.73,2.85-22.28,6.88-1.87,1-4.05,2.21-6.22,3.5-1.72-.19-3.89.43-5.37,1.63l-.08.07-.05.09c-.19.3-.33.57-.43.84-.16.44-.25.9-.27,1.36-3.79,2.72-6.47,5.37-5.73,7.09h0s.02.08.05.12l2,3.74c-.08.93-.18,1.73-.28,2.5-.45,3.48-.75,5.84,2.13,11.53.17.34.36.7.55,1.06l.54,1,28.09,52.57c.61,1.15,2.07,1.65,4.36,1.51,7.32,1.78,16.05.11,25.27-4.81l.4-.21c9.2-4.92,15.42-11.23,18.02-18.28,1.3-1.69,1.85-3.26,1.18-4.51Zm-79-42.76s.02,0,.02.02c.02.02.06.03.11.05.05,0,.11.02.18.04t0,0c.11.02.25.03.44.03.11,0,.24,0,.39-.02.06,0,.12,0,.19-.02.03,0,.06,0,.09-.02.07,0,.14-.02.23-.03.07,0,.14-.02.21-.03.14-.03.3-.06.48-.1.04,0,.08-.02.13-.03.14-.03.29-.06.45-.11.08-.02.17-.04.27-.07.31-.08.65-.17,1.03-.3.12-.04.25-.08.39-.12.13-.04.27-.09.4-.14.15-.05.31-.1.47-.16.03,0,.06-.02.1-.04.1-.03.2-.06.3-.1.03-.02.07-.02.11-.04.33-.12.67-.25,1.02-.38.24-.09.47-.19.71-.28.94-.37,1.95-.8,3.01-1.26.29-.13.58-.26.87-.39.43-.2.87-.4,1.32-.61.14-.06.27-.13.41-.19.36-.17.74-.35,1.11-.53.24-.11.49-.24.74-.35.13-.07.27-.14.39-.2.07-.04.14-.07.21-.11.11-.05.21-.11.32-.16.16-.08.32-.16.48-.24.28-.14.56-.28.84-.43.65-.33,1.31-.68,1.97-1.02,1.4-.74,2.79-1.5,4.14-2.26.27-.14.52-.29.77-.43.51-.29,1.01-.58,1.51-.87.49-.29.98-.58,1.46-.87.23-.14.46-.28.68-.42,0,0,.02-.02.02-.02.24-.14.46-.29.69-.43.03-.02.06-.04.09-.05.33-.2.65-.4.96-.61.32-.2.63-.4.93-.6,0,0,0,0,0,0,.43-.28.83-.55,1.22-.82.08-.05.17-.11.25-.17.24-.17.48-.33.71-.49.15-.11.3-.21.44-.31.03-.02.05-.05.08-.06.11-.08.22-.16.33-.24.23-.17.45-.33.65-.48.11-.08.2-.15.29-.22.12-.09.23-.17.33-.26.05-.05.11-.09.16-.13.37-.3.7-.57.98-.82.08-.07.14-.13.22-.19.05-.05.11-.1.16-.14.04-.04.08-.08.11-.11.05-.04.09-.08.14-.12.13-.13.24-.25.36-.36.11-.12.21-.23.3-.33,0,0,.02,0,.02-.02.12-.14.22-.27.3-.38.08-.11.15-.21.2-.3.03-.06.06-.11.09-.17.06-.12.09-.21.11-.28-.03-.03-.05-.07-.07-.1l-1.18-2.22c-.93,1.69-3.16,3.75-5.92,5.82-.36.27-.73.55-1.11.82-.5.36-1.02.72-1.55,1.08-.25.17-.51.35-.77.52-1.45.96-2.99,1.92-4.57,2.85-.26.15-.51.3-.77.45-.41.23-.81.46-1.21.68-.52.28-1.03.57-1.56.85-.2.11-.42.22-.63.33-.17.09-.36.18-.54.28-.04.02-.07.04-.11.05-.22.11-.44.23-.66.33-.83.43-1.69.85-2.58,1.26-.14.07-.29.14-.43.2-.63.3-1.28.58-1.91.87-.24.11-.49.21-.73.32h0c-.24.11-.48.21-.71.31-.2.08-.41.17-.62.26-.03.02-.07.03-.11.05-.24.09-.46.19-.7.28-1.05.42-2.1.81-3.11,1.16-.14.05-.28.09-.43.14-.42.14-.83.27-1.24.39-.09.03-.17.05-.27.08-.17.05-.35.1-.52.14-.02,0-.03,0-.05.02-.2.05-.39.11-.58.16-.11.02-.2.05-.31.08-.1.02-.2.05-.3.08-.3.07-.6.13-.89.19-.19.04-.38.07-.57.1-.36.06-.72.11-1.06.14-.08,0-.17.02-.24.02-.17.02-.32.02-.47.02h-.41c-.17,0-.32-.02-.47-.03l1.21,2.26s.02.02.04.03Zm18.82-10.64c.76-.41,1.5-.82,2.22-1.22.46-.27.92-.52,1.37-.78.02,0,.03-.02.05-.03.58-.34,1.15-.68,1.69-1.01,3.49-2.14,6.28-4.17,8.28-5.88.15-.14.3-.27.45-.39.17-.14.33-.29.48-.43.08-.07.15-.14.22-.21.06-.05.11-.11.17-.16,1.62-1.57,2.41-2.77,2.33-3.42,0-.02,0-.04,0-.06,0-.03-.02-.06-.04-.08-.58-1.08-6.66-.02-20.56,7.4-1.91,1.02-3.62,1.98-5.18,2.88.22.12.45.26.67.41,1.46-.81,3.07-1.68,4.85-2.64,9.65-5.15,14.76-7.43,17.65-7.85.47-.07.91.15,1.13.57.22.41.16.9-.15,1.25-2.19,2.42-7.51,6.61-15.92,11.1-8.4,4.49-14.85,6.6-18.06,7.07-.46.06-.91-.16-1.13-.57-.22-.42-.16-.91.15-1.26.7-.77,1.74-1.64,3.23-2.67-.05-.14-.08-.29-.12-.43-3.39,2.49-4.75,4.15-4.75,4.91,0,.08.02.16.05.22.76,1.43,9.29-.48,20.94-6.7Z"/>
  </g>
</svg>