<?xml version="1.0" encoding="UTF-8"?>
<svg id="Newspaper-and-magazines" data-name="Newspaper-and-magazines" xmlns="http://www.w3.org/2000/svg" viewBox="0 0 195.92 250.72">
  <g id="V2">
    <path d="m66.06,68.05l-29.11,51.63c-.07.13-.15.25-.23.37-.02.04-.05.07-.07.11-.06.09-.12.17-.18.26-.03.04-.05.07-.08.11-.08.1-.16.2-.24.3,0,.01-.02.02-.03.03-.09.11-.19.21-.29.31-.03.03-.06.06-.08.08-.07.07-.15.15-.23.22-.03.03-.06.06-.1.09-.09.08-.18.15-.27.23-.02.01-.03.03-.05.04-.11.09-.22.17-.34.25-.03.02-.06.04-.09.06-.09.06-.18.12-.27.17-.04.02-.07.04-.11.06-.1.06-.2.11-.3.16-.02.01-.05.03-.07.04-.12.06-.25.12-.38.18-.03.01-.06.02-.08.03-.1.04-.2.08-.3.12-.04.01-.08.03-.12.04-.1.04-.2.07-.31.1-.03,0-.06.02-.09.03-.13.04-.27.07-.4.1-.03,0-.05.01-.08.02-.11.02-.22.04-.33.06-.04,0-.08.01-.12.02-.1.02-.2.03-.31.04-.04,0-.07,0-.11.01-.14.01-.27.02-.41.02,0,0,0,0-.01,0l57.94,32.66c4.82,2.72,10.95,1.01,13.66-3.81l32.74-58.08-63.64-35.88-5.54,9.83Zm-2.06,16.01l25.54,14.4-9.95,17.65-25.54-14.4,9.95-17.65Zm35.58,64.29l-2.08,3.68c-.2.36-.66.49-1.02.28l-53.2-29.99c-.36-.2-.49-.66-.28-1.02l2.08-3.68c.2-.36.66-.49,1.02-.28l53.2,29.99c.36.2.49.66.28,1.02Zm5.96-10.57l-2.08,3.68c-.2.36-.66.49-1.02.28l-53.2-29.99c-.36-.2-.49-.66-.28-1.02l2.08-3.68c.2-.36.66-.49,1.02-.28l53.2,29.99c.36.2.49.66.28,1.02Zm6.08-10.78l-2.31,4.1c-.14.25-.45.33-.7.19l-24.65-13.9c-.25-.14-.33-.45-.19-.7l2.31-4.1c.14-.25.45-.33.7-.19l24.65,13.9c.25.14.33.45.19.7Zm6.13-10.87l-2.31,4.1c-.14.25-.45.33-.7.19l-24.65-13.9c-.25-.14-.33-.45-.19-.7l2.31-4.1c.14-.25.45-.33.7-.19l24.65,13.9c.25.14.33.45.19.7Zm1.31-12.28c-.22-.45-.68-1.07-1.38-1.85-.3-.35-.6-.72-.88-1.1-.28-.39-.5-.8-.65-1.23-.15-.43-.22-.89-.2-1.37.02-.48.18-.99.48-1.53.3-.54.68-.96,1.12-1.28.44-.32.93-.52,1.47-.62.54-.09,1.12-.07,1.73.06.62.13,1.25.39,1.91.76.78.44,1.41.91,1.89,1.39s.84.94,1.1,1.35l-1.92,1.64c-.23-.35-.51-.7-.83-1.05-.32-.35-.77-.69-1.32-1-.63-.35-1.12-.52-1.49-.5-.37.02-.66.21-.86.56-.12.21-.17.42-.15.62.02.2.09.41.21.63.12.22.27.45.46.68.19.23.4.48.63.74.48.56.88,1.08,1.2,1.55.32.47.55.93.68,1.39.13.46.16.92.09,1.4-.08.47-.27.99-.58,1.55-.61,1.08-1.46,1.71-2.56,1.88-1.1.17-2.41-.18-3.94-1.04-.51-.29-.96-.58-1.34-.88-.38-.29-.7-.58-.97-.84-.27-.27-.49-.52-.66-.75-.17-.23-.31-.43-.42-.61l1.91-1.66c.24.39.57.8.99,1.23.42.44,1,.86,1.74,1.28.37.21.69.35.97.42.27.07.51.1.72.07.2-.02.38-.09.51-.21.14-.11.26-.26.36-.44.21-.38.21-.8,0-1.25Zm-21.51-14.17c.62-2.29,1.28-4.51,1.98-6.68l2.83,1.6c-.26.72-.52,1.48-.79,2.26-.27.79-.53,1.58-.78,2.37-.26.8-.5,1.57-.73,2.33-.23.76-.42,1.46-.59,2.12.51-.43,1.03-.9,1.57-1.41.54-.51,1.07-1.02,1.59-1.53.53-.51,1.02-1.01,1.5-1.5.47-.48.9-.92,1.27-1.29l2.23,1.26c-.12.53-.27,1.13-.43,1.8-.16.67-.33,1.36-.49,2.08-.16.72-.32,1.44-.48,2.16-.16.72-.29,1.39-.41,2.02.47-.49.97-1.02,1.49-1.61.53-.58,1.06-1.2,1.6-1.84.54-.64,1.07-1.28,1.6-1.91.53-.64,1.04-1.25,1.52-1.85l2.71,1.53c-1.49,1.72-3.05,3.44-4.69,5.15-1.64,1.71-3.26,3.3-4.87,4.76l-2.39-1.35c.21-1.29.47-2.63.77-4.02.3-1.39.6-2.77.91-4.16-1.03.98-2.05,1.96-3.07,2.94-1.02.98-2.03,1.89-3.03,2.74l-2.39-1.35c.42-2.13.94-4.34,1.55-6.63Zm-1.67-8.74l-1.24,2.19-5.23-2.95-1.28,2.28,4.64,2.62-1.21,2.14-4.64-2.62-1.58,2.8,5.61,3.16-1.24,2.19-8.23-4.64,6.55-11.61,7.84,4.42Zm-20.72-11.68c.16.58.31,1.26.46,2.05.14.79.28,1.62.4,2.49.12.87.23,1.76.31,2.67.09.91.17,1.78.23,2.61l3.86-6.85,2.6,1.46-6.55,11.61-2.19-1.24c0-1.75-.07-3.52-.21-5.31-.14-1.79-.38-3.53-.71-5.24l-4.29,7.61-2.58-1.45,6.55-11.61,2.13,1.2Zm120.35,46.45L141.33,2.31c-.72-1.51-2.29-2.42-3.95-2.3L12.93,8.79c-3.93.28-5.21,5.42-1.87,7.5l28.21,17.62c1.85,1.16,2.46,3.56,1.38,5.46L.86,109.26c-.26.46-.44.97-.51,1.5-.9,6.76-.1,13.14,3.39,18.92l69.13,119.02c1.9,3.28,6.89,2.4,7.51-1.34,1.21-7.34,3.37-14.19,6.92-20.33l69.12-120.46c1.12-1.94,3.6-2.62,5.54-1.51l27.87,15.92c3.46,1.98,7.4-1.69,5.68-5.28Zm-59.12-21.55l-33,58.53c-2.99,5.31-9.75,7.19-15.06,4.2l-61.16-34.48h0c-3.45-1.94-4.67-6.33-2.73-9.78l29.11-51.63,11.62,6.55,5.79-10.28c.14-.25.45-.33.7-.19l64.53,36.38c.25.14.33.45.19.7Zm-101.92,26.86c-1.9,1.46-4.57,1.74-6.79.49-2.96-1.67-4.01-5.43-2.34-8.38l28.6-50.73,10.72,6.04-28.6,50.73c-.42.74-.96,1.36-1.6,1.85Z" fill="green"/>
  </g>
</svg>