<?xml version="1.0" standalone="no"?><svg xmlns:xlink="http://www.w3.org/1999/xlink" xmlns="http://www.w3.org/2000/svg" viewBox="0 0 1000 1400" preserveAspectRatio="xMaxYMax slice"><g transform="scale(1.4285714285714286)"><rect x="0" y="0" width="700" height="980" fill="#f0e4d9"/><g transform="translate(28,28) scale(0.7) rotate(0)"><path d="M19.9981 0.00193429L3.72652 -7.68637e-07L8.4784 4.75382L0 13.2345L6.76585 20L15.2462 11.5208L20 16.2746L19.9981 0.00193429Z" fill="#09aba7"/></g><rect x="448" y="28" width="14" height="14" fill="#f0e4d9"/><g transform="translate(448,28) scale(0.35) rotate(0)"><path fill-rule="evenodd" clip-rule="evenodd" d="M10 20C15.5228 20 20 15.5228 20 10C20 4.47715 15.5228 0 10 0C4.47715 0 0 4.47715 0 10C0 15.5228 4.47715 20 10 20ZM10 17C13.866 17 17 13.866 17 10C17 6.13401 13.866 3 10 3C6.13401 3 3 6.13401 3 10C3 13.866 6.13401 17 10 17Z" fill="#37b7b1"/></g><g transform="translate(455,28) scale(0.35) rotate(0)"><path fill-rule="evenodd" clip-rule="evenodd" d="M10 20C15.5228 20 20 15.5228 20 10C20 4.47715 15.5228 0 10 0C4.47715 0 0 4.47715 0 10C0 15.5228 4.47715 20 10 20ZM10 17C13.866 17 17 13.866 17 10C17 6.13401 13.866 3 10 3C6.13401 3 3 6.13401 3 10C3 13.866 6.13401 17 10 17Z" fill="#12ada9"/></g><g transform="translate(455,35) scale(0.35) rotate(0)"><path d="M19.9981 0.00193429L3.72652 -7.68637e-07L8.4784 4.75382L0 13.2345L6.76585 20L15.2462 11.5208L20 16.2746L19.9981 0.00193429Z" fill="#a1d1c8"/></g><g transform="translate(518,28) scale(0.7) rotate(0)"><path fill-rule="evenodd" clip-rule="evenodd" d="M10 20C15.5228 20 20 15.5228 20 10C20 4.47715 15.5228 0 10 0C4.47715 0 0 4.47715 0 10C0 15.5228 4.47715 20 10 20ZM10 17C13.866 17 17 13.866 17 10C17 6.13401 13.866 3 10 3C6.13401 3 3 6.13401 3 10C3 13.866 6.13401 17 10 17Z" fill="#26b2ad"/></g><rect x="98" y="98" width="14" height="14" fill="#f0e4d9"/><rect x="168" y="98" width="14" height="14" fill="#f0e4d9"/><g transform="translate(175,98) scale(0.35) rotate(0)"><path d="M19.9981 0.00193429L3.72652 -7.68637e-07L8.4784 4.75382L0 13.2345L6.76585 20L15.2462 11.5208L20 16.2746L19.9981 0.00193429Z" fill="#a2d1c8"/></g><g transform="translate(175,105) scale(0.35) rotate(0)"><path fill-rule="evenodd" clip-rule="evenodd" d="M10 20C15.5228 20 20 15.5228 20 10C20 4.47715 15.5228 0 10 0C4.47715 0 0 4.47715 0 10C0 15.5228 4.47715 20 10 20ZM10 17C13.866 17 17 13.866 17 10C17 6.13401 13.866 3 10 3C6.13401 3 3 6.13401 3 10C3 13.866 6.13401 17 10 17Z" fill="#1fb1ac"/></g><rect x="238" y="98" width="14" height="14" fill="#f0e4d9"/><g transform="translate(245,105) scale(0.35) rotate(0)"><path fill-rule="evenodd" clip-rule="evenodd" d="M10 20C15.5228 20 20 15.5228 20 10C20 4.47715 15.5228 0 10 0C4.47715 0 0 4.47715 0 10C0 15.5228 4.47715 20 10 20ZM10 17C13.866 17 17 13.866 17 10C17 6.13401 13.866 3 10 3C6.13401 3 3 6.13401 3 10C3 13.866 6.13401 17 10 17Z" fill="#97cec6"/></g><g transform="translate(308,98) scale(0.7) rotate(0)"><path d="M19.9981 0.00193429L3.72652 -7.68637e-07L8.4784 4.75382L0 13.2345L6.76585 20L15.2462 11.5208L20 16.2746L19.9981 0.00193429Z" fill="#09aba7"/></g><circle cx="455" cy="105" r="7" fill="#dadfd4"/><rect x="518" y="98" width="14" height="14" fill="#f0e4d9"/><rect x="28" y="168" width="14" height="14" fill="#f0e4d9"/><circle cx="38.5" cy="171.5" r="3.5" fill="#0aaba7"/><g transform="translate(378,168) scale(0.7) rotate(0)"><path d="M19.9981 0.00193429L3.72652 -7.68637e-07L8.4784 4.75382L0 13.2345L6.76585 20L15.2462 11.5208L20 16.2746L19.9981 0.00193429Z" fill="#0baca7"/></g><g transform="translate(448,168) scale(0.7) rotate(0)"><path fill-rule="evenodd" clip-rule="evenodd" d="M10 20C15.5228 20 20 15.5228 20 10C20 4.47715 15.5228 0 10 0C4.47715 0 0 4.47715 0 10C0 15.5228 4.47715 20 10 20ZM10 17C13.866 17 17 13.866 17 10C17 6.13401 13.866 3 10 3C6.13401 3 3 6.13401 3 10C3 13.866 6.13401 17 10 17Z" fill="#c1d8cf"/></g><circle cx="525" cy="175" r="7" fill="#b6d6cd"/><g transform="translate(588,168) scale(0.7) rotate(0)"><path d="M19.9981 0.00193429L3.72652 -7.68637e-07L8.4784 4.75382L0 13.2345L6.76585 20L15.2462 11.5208L20 16.2746L19.9981 0.00193429Z" fill="#39b7b1"/></g><g transform="translate(168,238) scale(0.7) rotate(0)"><path fill-rule="evenodd" clip-rule="evenodd" d="M10 20C15.5228 20 20 15.5228 20 10C20 4.47715 15.5228 0 10 0C4.47715 0 0 4.47715 0 10C0 15.5228 4.47715 20 10 20ZM10 17C13.866 17 17 13.866 17 10C17 6.13401 13.866 3 10 3C6.13401 3 3 6.13401 3 10C3 13.866 6.13401 17 10 17Z" fill="#8ccbc3"/></g><g transform="translate(238,238) scale(0.7) rotate(0)"><path d="M19.9981 0.00193429L3.72652 -7.68637e-07L8.4784 4.75382L0 13.2345L6.76585 20L15.2462 11.5208L20 16.2746L19.9981 0.00193429Z" fill="#68c3bc"/></g><rect x="448" y="238" width="14" height="14" fill="#f0e4d9"/><circle cx="595" cy="245" r="7" fill="#76c6be"/><rect x="168" y="308" width="14" height="14" fill="#f0e4d9"/><g transform="translate(168,308) scale(0.35) rotate(0)"><path fill-rule="evenodd" clip-rule="evenodd" d="M10 20C15.5228 20 20 15.5228 20 10C20 4.47715 15.5228 0 10 0C4.47715 0 0 4.47715 0 10C0 15.5228 4.47715 20 10 20ZM10 17C13.866 17 17 13.866 17 10C17 6.13401 13.866 3 10 3C6.13401 3 3 6.13401 3 10C3 13.866 6.13401 17 10 17Z" fill="#d7ded4"/></g><g transform="translate(175,308) scale(0.35) rotate(0)"><path d="M19.9981 0.00193429L3.72652 -7.68637e-07L8.4784 4.75382L0 13.2345L6.76585 20L15.2462 11.5208L20 16.2746L19.9981 0.00193429Z" fill="#e3e1d6"/></g><g transform="translate(168,315) scale(0.35) rotate(0)"><path fill-rule="evenodd" clip-rule="evenodd" d="M10 20C15.5228 20 20 15.5228 20 10C20 4.47715 15.5228 0 10 0C4.47715 0 0 4.47715 0 10C0 15.5228 4.47715 20 10 20ZM10 17C13.866 17 17 13.866 17 10C17 6.13401 13.866 3 10 3C6.13401 3 3 6.13401 3 10C3 13.866 6.13401 17 10 17Z" fill="#c3d9cf"/></g><g transform="translate(658,308) scale(0.7) rotate(0)"><path fill-rule="evenodd" clip-rule="evenodd" d="M10 20C15.5228 20 20 15.5228 20 10C20 4.47715 15.5228 0 10 0C4.47715 0 0 4.47715 0 10C0 15.5228 4.47715 20 10 20ZM10 17C13.866 17 17 13.866 17 10C17 6.13401 13.866 3 10 3C6.13401 3 3 6.13401 3 10C3 13.866 6.13401 17 10 17Z" fill="#cddbd2"/></g><g transform="translate(308,378) scale(0.7) rotate(0)"><path d="M19.9981 0.00193429L3.72652 -7.68637e-07L8.4784 4.75382L0 13.2345L6.76585 20L15.2462 11.5208L20 16.2746L19.9981 0.00193429Z" fill="#e0e0d6"/></g><g transform="translate(238,448) scale(0.7) rotate(0)"><path fill-rule="evenodd" clip-rule="evenodd" d="M10 20C15.5228 20 20 15.5228 20 10C20 4.47715 15.5228 0 10 0C4.47715 0 0 4.47715 0 10C0 15.5228 4.47715 20 10 20ZM10 17C13.866 17 17 13.866 17 10C17 6.13401 13.866 3 10 3C6.13401 3 3 6.13401 3 10C3 13.866 6.13401 17 10 17Z" fill="#2cb4af"/></g><g transform="translate(308,448) scale(0.7) rotate(0)"><path fill-rule="evenodd" clip-rule="evenodd" d="M10 20C15.5228 20 20 15.5228 20 10C20 4.47715 15.5228 0 10 0C4.47715 0 0 4.47715 0 10C0 15.5228 4.47715 20 10 20ZM10 17C13.866 17 17 13.866 17 10C17 6.13401 13.866 3 10 3C6.13401 3 3 6.13401 3 10C3 13.866 6.13401 17 10 17Z" fill="#cadbd1"/></g><g transform="translate(448,448) scale(0.7) rotate(0)"><path d="M19.9981 0.00193429L3.72652 -7.68637e-07L8.4784 4.75382L0 13.2345L6.76585 20L15.2462 11.5208L20 16.2746L19.9981 0.00193429Z" fill="#c9dad1"/></g><circle cx="35" cy="525" r="7" fill="#72c5be"/><g transform="translate(98,518) scale(0.7) rotate(0)"><path fill-rule="evenodd" clip-rule="evenodd" d="M10 20C15.5228 20 20 15.5228 20 10C20 4.47715 15.5228 0 10 0C4.47715 0 0 4.47715 0 10C0 15.5228 4.47715 20 10 20ZM10 17C13.866 17 17 13.866 17 10C17 6.13401 13.866 3 10 3C6.13401 3 3 6.13401 3 10C3 13.866 6.13401 17 10 17Z" fill="#08aba7"/></g><g transform="translate(518,518) scale(0.7) rotate(0)"><path fill-rule="evenodd" clip-rule="evenodd" d="M10 20C15.5228 20 20 15.5228 20 10C20 4.47715 15.5228 0 10 0C4.47715 0 0 4.47715 0 10C0 15.5228 4.47715 20 10 20ZM10 17C13.866 17 17 13.866 17 10C17 6.13401 13.866 3 10 3C6.13401 3 3 6.13401 3 10C3 13.866 6.13401 17 10 17Z" fill="#cadbd1"/></g><circle cx="595" cy="525" r="7" fill="#b9d6cd"/><rect x="658" y="518" width="14" height="14" fill="#f0e4d9"/><g transform="translate(658,518) scale(0.35) rotate(0)"><path d="M19.9981 0.00193429L3.72652 -7.68637e-07L8.4784 4.75382L0 13.2345L6.76585 20L15.2462 11.5208L20 16.2746L19.9981 0.00193429Z" fill="#93cdc5"/></g><circle cx="661.5" cy="528.5" r="3.5" fill="#17afaa"/><rect x="98" y="588" width="14" height="14" fill="#f0e4d9"/><circle cx="108.5" cy="598.5" r="3.5" fill="#bcd7ce"/><g transform="translate(168,588) scale(0.7) rotate(0)"><path fill-rule="evenodd" clip-rule="evenodd" d="M10 20C15.5228 20 20 15.5228 20 10C20 4.47715 15.5228 0 10 0C4.47715 0 0 4.47715 0 10C0 15.5228 4.47715 20 10 20ZM10 17C13.866 17 17 13.866 17 10C17 6.13401 13.866 3 10 3C6.13401 3 3 6.13401 3 10C3 13.866 6.13401 17 10 17Z" fill="#c8dad0"/></g><rect x="588" y="588" width="14" height="14" fill="#f0e4d9"/><circle cx="591.5" cy="591.5" r="3.5" fill="#99cfc6"/><circle cx="598.5" cy="591.5" r="3.5" fill="#e3e1d6"/><circle cx="598.5" cy="598.5" r="3.5" fill="#4abbb5"/><circle cx="35" cy="665" r="7" fill="#27b3ad"/><circle cx="245" cy="665" r="7" fill="#90cdc4"/><rect x="658" y="658" width="14" height="14" fill="#f0e4d9"/><g transform="translate(658,665) scale(0.35) rotate(0)"><path d="M19.9981 0.00193429L3.72652 -7.68637e-07L8.4784 4.75382L0 13.2345L6.76585 20L15.2462 11.5208L20 16.2746L19.9981 0.00193429Z" fill="#0aaca7"/></g><rect x="28" y="728" width="14" height="14" fill="#f0e4d9"/><g transform="translate(35,735) scale(0.35) rotate(0)"><path fill-rule="evenodd" clip-rule="evenodd" d="M10 20C15.5228 20 20 15.5228 20 10C20 4.47715 15.5228 0 10 0C4.47715 0 0 4.47715 0 10C0 15.5228 4.47715 20 10 20ZM10 17C13.866 17 17 13.866 17 10C17 6.13401 13.866 3 10 3C6.13401 3 3 6.13401 3 10C3 13.866 6.13401 17 10 17Z" fill="#48bbb5"/></g><g transform="translate(168,728) scale(0.7) rotate(0)"><path fill-rule="evenodd" clip-rule="evenodd" d="M10 20C15.5228 20 20 15.5228 20 10C20 4.47715 15.5228 0 10 0C4.47715 0 0 4.47715 0 10C0 15.5228 4.47715 20 10 20ZM10 17C13.866 17 17 13.866 17 10C17 6.13401 13.866 3 10 3C6.13401 3 3 6.13401 3 10C3 13.866 6.13401 17 10 17Z" fill="#d9ded4"/></g><g transform="translate(238,728) scale(0.7) rotate(0)"><path d="M19.9981 0.00193429L3.72652 -7.68637e-07L8.4784 4.75382L0 13.2345L6.76585 20L15.2462 11.5208L20 16.2746L19.9981 0.00193429Z" fill="#0caca8"/></g><g transform="translate(448,728) scale(0.7) rotate(0)"><path fill-rule="evenodd" clip-rule="evenodd" d="M10 20C15.5228 20 20 15.5228 20 10C20 4.47715 15.5228 0 10 0C4.47715 0 0 4.47715 0 10C0 15.5228 4.47715 20 10 20ZM10 17C13.866 17 17 13.866 17 10C17 6.13401 13.866 3 10 3C6.13401 3 3 6.13401 3 10C3 13.866 6.13401 17 10 17Z" fill="#64c2bb"/></g><g transform="translate(588,728) scale(0.7) rotate(0)"><path fill-rule="evenodd" clip-rule="evenodd" d="M10 20C15.5228 20 20 15.5228 20 10C20 4.47715 15.5228 0 10 0C4.47715 0 0 4.47715 0 10C0 15.5228 4.47715 20 10 20ZM10 17C13.866 17 17 13.866 17 10C17 6.13401 13.866 3 10 3C6.13401 3 3 6.13401 3 10C3 13.866 6.13401 17 10 17Z" fill="#8eccc4"/></g><circle cx="105" cy="805" r="7" fill="#c3d9cf"/><g transform="translate(378,798) scale(0.7) rotate(0)"><path d="M19.9981 0.00193429L3.72652 -7.68637e-07L8.4784 4.75382L0 13.2345L6.76585 20L15.2462 11.5208L20 16.2746L19.9981 0.00193429Z" fill="#d1dcd2"/></g><rect x="448" y="798" width="14" height="14" fill="#f0e4d9"/><rect x="588" y="798" width="14" height="14" fill="#f0e4d9"/><g transform="translate(588,805) scale(0.35) rotate(0)"><path fill-rule="evenodd" clip-rule="evenodd" d="M10 20C15.5228 20 20 15.5228 20 10C20 4.47715 15.5228 0 10 0C4.47715 0 0 4.47715 0 10C0 15.5228 4.47715 20 10 20ZM10 17C13.866 17 17 13.866 17 10C17 6.13401 13.866 3 10 3C6.13401 3 3 6.13401 3 10C3 13.866 6.13401 17 10 17Z" fill="#1fb1ac"/></g><g transform="translate(168,868) scale(0.7) rotate(0)"><path d="M19.9981 0.00193429L3.72652 -7.68637e-07L8.4784 4.75382L0 13.2345L6.76585 20L15.2462 11.5208L20 16.2746L19.9981 0.00193429Z" fill="#8eccc4"/></g><g transform="translate(588,868) scale(0.7) rotate(0)"><path d="M19.9981 0.00193429L3.72652 -7.68637e-07L8.4784 4.75382L0 13.2345L6.76585 20L15.2462 11.5208L20 16.2746L19.9981 0.00193429Z" fill="#7ec8c0"/></g><g transform="translate(238,938) scale(0.7) rotate(0)"><path d="M19.9981 0.00193429L3.72652 -7.68637e-07L8.4784 4.75382L0 13.2345L6.76585 20L15.2462 11.5208L20 16.2746L19.9981 0.00193429Z" fill="#1eb0ac"/></g><circle cx="315" cy="945" r="7" fill="#3db8b2"/><g transform="translate(448,938) scale(0.7) rotate(0)"><path d="M19.9981 0.00193429L3.72652 -7.68637e-07L8.4784 4.75382L0 13.2345L6.76585 20L15.2462 11.5208L20 16.2746L19.9981 0.00193429Z" fill="#dcdfd5"/></g></g></svg>