<?xml version="1.0" encoding="UTF-8"?>
<svg id="Layer_2" data-name="Layer 2" xmlns="http://www.w3.org/2000/svg" viewBox="0 0 175.83 184.28">
  <defs>
    <style>
      .cls-1 {
        fill: green;
      }
    </style>
  </defs>
  <g id="V2">
    <path class="cls-1" d="m110.13,81.58c.05-.27.06-.53.04-.77-.02-.24-.08-.45-.19-.64-.24-.43-.54-.66-.88-.69-.34-.04-.68.04-1.04.25-.26.14-.48.32-.66.53-.18.21-.33.43-.46.65-.12.21-.22.42-.29.61-.08.18-.13.33-.16.44l-1.92-.9c.2-.64.51-1.24.93-1.82.41-.58.95-1.05,1.59-1.42.59-.33,1.14-.55,1.64-.66.5-.1.96-.11,1.37-.02.42.09.79.27,1.12.55.33.28.62.64.87,1.08.21.37.34.76.39,1.18.04.42.04.85-.01,1.3-.06.44-.14.89-.27,1.35-.12.45-.25.89-.38,1.31-.07.21-.14.46-.21.72-.08.27-.14.53-.2.79-.05.26-.1.5-.13.72-.04.22-.04.38-.02.49l4.31-2.45,1.03,1.81-6.68,3.8c-.08-.09-.17-.22-.26-.39-.09-.16-.16-.28-.2-.34-.26-.47-.43-.93-.5-1.4-.07-.47-.08-.94-.03-1.41.06-.47.15-.94.29-1.4.14-.46.28-.93.41-1.39.11-.35.2-.68.29-.99.09-.32.16-.61.21-.89Zm1.68,55.2l-9.01-15.84c-.3-.57-1.29-1.28-2.71-1.96-.58-.28-.93-.89-.87-1.54.14-1.57.03-2.78-.3-3.31h0s-1.8-3.18-1.8-3.18l-31.79,18.07,1.81,3.17c.3.57,1.28,1.28,2.7,1.96.59.28.93.89.88,1.54-.14,1.57-.04,2.77.29,3.31l9.04,15.9c.48.82,1.44,1.33,2.69,1.42,1.31.1,2.78-.27,4.14-1.04,2.73-1.55,4.14-4.27,3.16-6.06-.13-.23-.05-.52.18-.65l.08-.04c.23-.13.52-.06.65.17,1.03,1.76,4.09,1.93,6.82.38s4.15-4.27,3.16-6.06c-.12-.23-.04-.52.19-.64l.08-.05c.22-.13.51-.05.64.17,1.04,1.76,4.1,1.94,6.83.38,2.73-1.55,4.15-4.27,3.16-6.06-.01-.01-.01-.02-.02-.04Zm-42.24-37.72c-.15.35-.32.7-.51,1.04-.18.34-.39.68-.61,1-.21.32-.43.62-.64.9l1.59,1.29c.27-.31.54-.64.81-1.01.27-.36.49-.72.67-1.08l4.1,7.22,2.16-1.22-5.7-10.03-1.51.86c-.08.34-.2.69-.36,1.03Zm-6.31-31.74c-2.33-.42-4.15-.9-5.5-1.84-.05-.04-.1-.1-.13-.16l-11.33,6.44c.04.06.06.13.07.2.12,1.64-.4,3.45-1.23,5.66-1.48,3.99-2,12.38,1.5,18.54l31.79-18.07c-3.51-6.16-10.98-10.01-15.17-10.77Zm-6.86-3.19c-.26-.36-.49-.76-.7-1.2l-10.47,5.95c.28.41.5.81.68,1.22l10.49-5.97Zm93.44,51.02l-9.02-15.84c-.3-.57-1.28-1.28-2.7-1.96-.59-.28-.93-.89-.87-1.54.13-1.57.03-2.78-.3-3.31h0s-1.81-3.18-1.81-3.18l-31.78,18.07,1.8,3.17c.31.57,1.29,1.28,2.71,1.96.59.28.93.89.87,1.54-.14,1.57-.03,2.77.3,3.31l9.04,15.9c.48.82,1.44,1.33,2.68,1.42,1.32.1,2.79-.27,4.14-1.04,2.73-1.55,4.15-4.27,3.16-6.06-.12-.23-.04-.52.19-.64l.08-.05c.23-.13.51-.05.65.17,1.03,1.76,4.09,1.93,6.82.38s4.15-4.27,3.16-6.06c-.12-.23-.04-.51.18-.64l.09-.05c.22-.13.51-.05.64.17,1.04,1.77,4.1,1.94,6.83.38,2.73-1.55,4.14-4.27,3.16-6.06-.01-.01-.02-.02-.02-.04Zm-48.56-69.46c-2.32-.42-4.14-.9-5.49-1.84-.06-.04-.1-.1-.14-.16l-11.32,6.44c.03.06.06.13.06.2.13,1.64-.4,3.45-1.22,5.66-1.49,3.99-2,12.38,1.5,18.54l31.78-18.07c-3.5-6.16-10.98-10.01-15.17-10.77Zm-6.86-3.19c-.26-.36-.49-.76-.69-1.2l-10.47,5.96c.28.4.5.8.67,1.21l10.49-5.97Zm-26.39,140.07c-1.25-.17-2.35-.93-2.97-2.02L.53,67.56c-1.11-1.95-.43-4.43,1.52-5.54L109.71.53c1.95-1.11,4.43-.43,5.55,1.52l59.08,103.45c.25.45.43.95.5,1.46,9.12,61.02-46.32,84.13-106.81,75.61Zm44.66-46.16s-.02-.04-.03-.05l-9.03-15.88c-.5-.95-1.98-1.8-3.12-2.36-.23-.11-.37-.34-.34-.6.11-1.26.12-2.96-.43-3.88l-20.49-36.02c-3.86-6.79-11.75-10.5-15.82-11.24-2.22-.4-3.63-.82-4.63-1.38.23-.38.25-.88.01-1.3-.35-.62-1.15-.84-1.77-.48l-.08.04c-.09-.14-.17-.28-.25-.43.43-.46.54-1.17.21-1.74l-2.36-4.16c-.63-1.09-2.02-1.47-3.11-.85l-9.93,5.65c-1.1.62-1.48,2.01-.86,3.1l2.37,4.16c.32.57.98.84,1.6.71.09.14.17.29.25.44l-.09.04c-.62.36-.84,1.15-.48,1.77.23.42.67.66,1.12.66-.03,1.15-.39,2.57-1.18,4.68-1.44,3.87-2.29,12.55,1.57,19.34l20.48,36.02c.51.95,1.98,1.81,3.13,2.36.23.11.36.34.34.59-.11,1.27-.13,2.98.42,3.88l9.04,15.9c.65,1.1,1.87,1.77,3.44,1.89,1.5.11,3.16-.3,4.68-1.16,2.51-1.44,4.01-3.71,3.95-5.72,1.71,1.07,4.43.95,6.94-.48,2.52-1.43,4.01-3.71,3.96-5.72,1.7,1.07,4.42.95,6.94-.48,3.21-1.83,4.76-5.02,3.55-7.3Zm38.03-21.63s-.02-.04-.03-.05l-9.03-15.88c-.51-.95-1.98-1.8-3.13-2.36-.23-.11-.36-.34-.34-.6.11-1.26.13-2.96-.42-3.88l-20.49-36.02c-3.86-6.79-11.76-10.5-15.83-11.24-2.21-.4-3.62-.82-4.62-1.38.22-.38.24-.88.01-1.3-.36-.62-1.15-.84-1.77-.48l-.08.04c-.09-.13-.17-.28-.25-.43.43-.46.53-1.16.21-1.74l-2.37-4.16c-.62-1.09-2.01-1.47-3.11-.85l-9.93,5.65c-1.09.62-1.47,2.01-.85,3.11l2.36,4.15c.33.57.98.84,1.6.71.1.14.18.29.25.44l-.08.04c-.62.36-.84,1.15-.49,1.77.24.42.68.66,1.13.66-.03,1.15-.4,2.57-1.18,4.68-1.45,3.88-2.3,12.55,1.56,19.34l20.49,36.02c.51.95,1.98,1.81,3.13,2.36.22.11.36.34.34.6-.12,1.26-.14,2.97.42,3.87l9.04,15.9c.64,1.1,1.87,1.77,3.43,1.89,1.51.11,3.17-.3,4.68-1.16,2.52-1.44,4.02-3.71,3.96-5.72,1.7,1.07,4.42.95,6.94-.48s4.01-3.71,3.96-5.72c1.7,1.08,4.42.95,6.94-.48,3.21-1.83,4.76-5.02,3.55-7.3Z"/>
  </g>
</svg>